

 
http://www.imdb.com/title/tt1753693/



Trapped inside his car by a mudslide, smooth talking Jackson Alder suddenly finds himself in a situation he can't talk his way out of. With no hope of rescue, he must defy the odds; battling Mother Nature for his survival. 



Director:
 William Dickerson 

Writers:
 William Dickerson, Dwight Moody 

Stars:
 Neil Hopkins, Brea Grant, John Forest 

Genres:
  Thriller 

Country:
 USA 

Language:
 English 



Format                                   : AVI
Format/Info                              : Audio Video Interleave
File size                                : 702 MiB
Duration                                 : 1h 26mn
Overall bit rate mode                    : Variable
Overall bit rate                         : 1 135 Kbps

Video
ID                                       : 0
Format                                   : MPEG-4 Visual
Format profile                           : Advanced Simple@L5
Format settings, BVOP                    : 2
Format settings, QPel                    : No
Format settings, GMC                     : No warppoints
Format settings, Matrix                  : Default (H.263)
Codec ID                                 : XVID
Codec ID/Hint                            : XviD
Duration                                 : 1h 26mn
Bit rate                                 : 1 002 Kbps
Width                                    : 640 pixels
Height                                   : 272 pixels
Display aspect ratio                     : 2.35:1
Frame rate                               : 23.976 fps
Color space                              : YUV
Chroma subsampling                       : 4:2:0
Bit depth                                : 8 bits
Scan type                                : Progressive
Compression mode                         : Lossy
Bits/(Pixel*Frame)                       : 0.240
Stream size                              : 620 MiB (88%)
Writing library                          : XviD 1.2.1 (UTC 2008-12-04)

Audio
ID                                       : 1
Format                                   : MPEG Audio
Format version                           : Version 1
Format profile                           : Layer 3
Mode                                     : Joint stereo
Mode extension                           : MS Stereo
Codec ID                                 : 55
Codec ID/Hint                            : MP3
Duration                                 : 1h 26mn
Bit rate mode                            : Variable
Bit rate                                 : 120 Kbps
Nominal bit rate                         : 128 Kbps
Channel(s)                               : 2 channels
Sampling rate                            : 48.0 KHz
Compression mode                         : Lossy
Stream size                              : 74.0 MiB (11%)
Alignment                                : Aligned on interleaves
Interleave, duration                     : 24 ms (0.58 video frame)
Interleave, preload duration             : 70 ms
Title                                    : Detour (2013) (HD) - [0] English
Writing library                          : LAME3.99r
Encoding settings                        : -m j -V 4 -q 2 -lowpass 17 --abr 128





 
http://addpix.net/viewer.php?file=91846300055515445254.jpg 
http://addpix.net/viewer.php?file=40038749720365011885.jpg 
http://addpix.net/viewer.php?file=29899891763376906777.jpg 
http://addpix.net/viewer.php?file=66383717247205327454.jpg 
http://addpix.net/viewer.php?file=76732475442198814566.jpg 
http://addpix.net/viewer.php?file=28523776189585625705.jpg
